<svg width="40" height="40" viewBox="0 0 40 40" fill="none" xmlns="http://www.w3.org/2000/svg">
<circle cx="20" cy="20" r="20" fill="#7E52FC"/>
<path d="M16.1693 17.6667H23.4811H16.1693Z" fill="white"/>
<path d="M16.1693 17.6667H23.4811" stroke="white" stroke-linecap="round"/>
<path d="M16.1693 20.6775H21.1962H16.1693Z" fill="white"/>
<path d="M16.1693 20.6775H21.1962" stroke="white" stroke-linecap="round"/>
<mask id="path-6-inside-1_218_139" fill="white">
<path d="M9.99997 18.957C9.99997 19.3133 10.3069 19.6021 10.6855 19.6021C11.064 19.6021 11.3709 19.3133 11.3709 18.957H9.99997ZM11.6666 23.3668C11.5217 23.0376 11.1208 22.8813 10.771 23.0176C10.4212 23.154 10.2551 23.5314 10.4 23.8606L11.6666 23.3668ZM21.4083 28.6514L21.9038 27.8636L20.724 27.2063L20.2285 27.9941L21.4083 28.6514ZM17.7467 27.8636L18.2421 28.6514L19.4219 27.9941L18.9264 27.2063L17.7467 27.8636ZM20.2285 27.9941C20.0524 28.2742 19.5981 28.2742 19.4219 27.9941L18.2421 28.6514C18.9492 29.7757 20.7013 29.7757 21.4083 28.6514L20.2285 27.9941ZM18.4543 12.2903H21.1962V11H18.4543V12.2903ZM28.2795 18.957V19.8172H29.6505V18.957H28.2795ZM15.9888 25.6164C14.8414 25.5978 14.2401 25.5291 13.7688 25.3454L13.2442 26.5375C13.9799 26.8243 14.8179 26.8879 15.9652 26.9065L15.9888 25.6164ZM10.4 23.8606C10.9334 25.0725 11.9565 26.0354 13.2442 26.5375L13.7688 25.3454C12.8171 24.9743 12.0609 24.2626 11.6666 23.3668L10.4 23.8606ZM28.2795 19.8172C28.2795 20.828 28.2792 21.5539 28.2377 22.1266C28.1966 22.6936 28.1174 23.0633 27.9839 23.3668L29.2505 23.8606C29.4648 23.3737 29.5596 22.8471 29.6054 22.2145C29.6509 21.5876 29.6505 20.8104 29.6505 19.8172H28.2795ZM23.6852 26.9065C24.8326 26.8879 25.6706 26.8243 26.4062 26.5375L25.8816 25.3454C25.4104 25.5291 24.8091 25.5978 23.6617 25.6164L23.6852 26.9065ZM27.9839 23.3668C27.5896 24.2626 26.8334 24.9743 25.8816 25.3454L26.4062 26.5375C27.694 26.0354 28.7171 25.0725 29.2505 23.8606L27.9839 23.3668ZM21.1962 12.2903C22.7054 12.2903 23.7892 12.291 24.6345 12.3666C25.4697 12.4414 26.0011 12.5847 26.4247 12.8291L27.1411 11.7289C26.4658 11.3394 25.6997 11.1658 24.7643 11.0821C23.839 10.9993 22.6789 11 21.1962 11V12.2903ZM29.6505 18.957C29.6505 17.5616 29.6512 16.4697 29.5632 15.5988C29.4743 14.7183 29.2899 13.9974 28.8761 13.3618L27.7071 14.036C27.9668 14.4348 28.119 14.9349 28.1985 15.7209C28.2788 16.5166 28.2795 17.5366 28.2795 18.957H29.6505ZM26.4247 12.8291C26.9474 13.1305 27.3869 13.5441 27.7071 14.036L28.8761 13.3618C28.4428 12.6963 27.8482 12.1367 27.1411 11.7289L26.4247 12.8291ZM18.4543 11C16.9716 11 15.8115 10.9993 14.8862 11.0821C13.9507 11.1658 13.1847 11.3394 12.5094 11.7289L13.2257 12.8291C13.6494 12.5847 14.1808 12.4414 15.016 12.3666C15.8613 12.291 16.9451 12.2903 18.4543 12.2903V11ZM11.3709 18.957C11.3709 17.5366 11.3717 16.5166 11.452 15.7209C11.5314 14.9349 11.6837 14.4348 11.9433 14.036L10.7744 13.3618C10.3606 13.9974 10.1762 14.7183 10.0872 15.5988C9.99925 16.4697 9.99997 17.5616 9.99997 18.957H11.3709ZM12.5094 11.7289C11.8023 12.1367 11.2077 12.6963 10.7744 13.3618L11.9433 14.036C12.2636 13.5441 12.7031 13.1305 13.2257 12.8291L12.5094 11.7289ZM18.9264 27.2063C18.7409 26.9112 18.578 26.6508 18.4196 26.4463C18.2527 26.2309 18.0614 26.0369 17.7961 25.8916L17.1068 27.0071C17.1501 27.0307 17.2092 27.074 17.3117 27.2063C17.4226 27.3496 17.5479 27.5475 17.7467 27.8636L18.9264 27.2063ZM15.9652 26.9065C16.3665 26.913 16.6207 26.9178 16.8145 26.938C16.9956 26.9569 17.0657 26.9845 17.1068 27.0071L17.7961 25.8916C17.5285 25.7451 17.2501 25.6852 16.9654 25.6555C16.6934 25.6272 16.3647 25.6225 15.9888 25.6164L15.9652 26.9065ZM21.9038 27.8636C22.1025 27.5475 22.2278 27.3496 22.3388 27.2063C22.4412 27.074 22.5003 27.0307 22.5436 27.0071L21.8544 25.8916C21.589 26.0369 21.3976 26.2309 21.2308 26.4463C21.0725 26.6508 20.9096 26.9112 20.724 27.2063L21.9038 27.8636ZM23.6617 25.6164C23.2857 25.6225 22.9571 25.6272 22.6851 25.6555C22.4004 25.6852 22.122 25.7451 21.8544 25.8916L22.5436 27.0071C22.5847 26.9845 22.6549 26.9569 22.836 26.938C23.0297 26.9178 23.2839 26.913 23.6852 26.9065L23.6617 25.6164Z"/>
</mask>
<path d="M9.99997 18.957C9.99997 19.3133 10.3069 19.6021 10.6855 19.6021C11.064 19.6021 11.3709 19.3133 11.3709 18.957H9.99997ZM11.6666 23.3668C11.5217 23.0376 11.1208 22.8813 10.771 23.0176C10.4212 23.154 10.2551 23.5314 10.4 23.8606L11.6666 23.3668ZM21.4083 28.6514L21.9038 27.8636L20.724 27.2063L20.2285 27.9941L21.4083 28.6514ZM17.7467 27.8636L18.2421 28.6514L19.4219 27.9941L18.9264 27.2063L17.7467 27.8636ZM20.2285 27.9941C20.0524 28.2742 19.5981 28.2742 19.4219 27.9941L18.2421 28.6514C18.9492 29.7757 20.7013 29.7757 21.4083 28.6514L20.2285 27.9941ZM18.4543 12.2903H21.1962V11H18.4543V12.2903ZM28.2795 18.957V19.8172H29.6505V18.957H28.2795ZM15.9888 25.6164C14.8414 25.5978 14.2401 25.5291 13.7688 25.3454L13.2442 26.5375C13.9799 26.8243 14.8179 26.8879 15.9652 26.9065L15.9888 25.6164ZM10.4 23.8606C10.9334 25.0725 11.9565 26.0354 13.2442 26.5375L13.7688 25.3454C12.8171 24.9743 12.0609 24.2626 11.6666 23.3668L10.4 23.8606ZM28.2795 19.8172C28.2795 20.828 28.2792 21.5539 28.2377 22.1266C28.1966 22.6936 28.1174 23.0633 27.9839 23.3668L29.2505 23.8606C29.4648 23.3737 29.5596 22.8471 29.6054 22.2145C29.6509 21.5876 29.6505 20.8104 29.6505 19.8172H28.2795ZM23.6852 26.9065C24.8326 26.8879 25.6706 26.8243 26.4062 26.5375L25.8816 25.3454C25.4104 25.5291 24.8091 25.5978 23.6617 25.6164L23.6852 26.9065ZM27.9839 23.3668C27.5896 24.2626 26.8334 24.9743 25.8816 25.3454L26.4062 26.5375C27.694 26.0354 28.7171 25.0725 29.2505 23.8606L27.9839 23.3668ZM21.1962 12.2903C22.7054 12.2903 23.7892 12.291 24.6345 12.3666C25.4697 12.4414 26.0011 12.5847 26.4247 12.8291L27.1411 11.7289C26.4658 11.3394 25.6997 11.1658 24.7643 11.0821C23.839 10.9993 22.6789 11 21.1962 11V12.2903ZM29.6505 18.957C29.6505 17.5616 29.6512 16.4697 29.5632 15.5988C29.4743 14.7183 29.2899 13.9974 28.8761 13.3618L27.7071 14.036C27.9668 14.4348 28.119 14.9349 28.1985 15.7209C28.2788 16.5166 28.2795 17.5366 28.2795 18.957H29.6505ZM26.4247 12.8291C26.9474 13.1305 27.3869 13.5441 27.7071 14.036L28.8761 13.3618C28.4428 12.6963 27.8482 12.1367 27.1411 11.7289L26.4247 12.8291ZM18.4543 11C16.9716 11 15.8115 10.9993 14.8862 11.0821C13.9507 11.1658 13.1847 11.3394 12.5094 11.7289L13.2257 12.8291C13.6494 12.5847 14.1808 12.4414 15.016 12.3666C15.8613 12.291 16.9451 12.2903 18.4543 12.2903V11ZM11.3709 18.957C11.3709 17.5366 11.3717 16.5166 11.452 15.7209C11.5314 14.9349 11.6837 14.4348 11.9433 14.036L10.7744 13.3618C10.3606 13.9974 10.1762 14.7183 10.0872 15.5988C9.99925 16.4697 9.99997 17.5616 9.99997 18.957H11.3709ZM12.5094 11.7289C11.8023 12.1367 11.2077 12.6963 10.7744 13.3618L11.9433 14.036C12.2636 13.5441 12.7031 13.1305 13.2257 12.8291L12.5094 11.7289ZM18.9264 27.2063C18.7409 26.9112 18.578 26.6508 18.4196 26.4463C18.2527 26.2309 18.0614 26.0369 17.7961 25.8916L17.1068 27.0071C17.1501 27.0307 17.2092 27.074 17.3117 27.2063C17.4226 27.3496 17.5479 27.5475 17.7467 27.8636L18.9264 27.2063ZM15.9652 26.9065C16.3665 26.913 16.6207 26.9178 16.8145 26.938C16.9956 26.9569 17.0657 26.9845 17.1068 27.0071L17.7961 25.8916C17.5285 25.7451 17.2501 25.6852 16.9654 25.6555C16.6934 25.6272 16.3647 25.6225 15.9888 25.6164L15.9652 26.9065ZM21.9038 27.8636C22.1025 27.5475 22.2278 27.3496 22.3388 27.2063C22.4412 27.074 22.5003 27.0307 22.5436 27.0071L21.8544 25.8916C21.589 26.0369 21.3976 26.2309 21.2308 26.4463C21.0725 26.6508 20.9096 26.9112 20.724 27.2063L21.9038 27.8636ZM23.6617 25.6164C23.2857 25.6225 22.9571 25.6272 22.6851 25.6555C22.4004 25.6852 22.122 25.7451 21.8544 25.8916L22.5436 27.0071C22.5847 26.9845 22.6549 26.9569 22.836 26.938C23.0297 26.9178 23.2839 26.913 23.6852 26.9065L23.6617 25.6164Z" fill="white"/>
<path d="M21.4083 28.6514L14.5956 40.8819L28.2214 16.421L21.4083 28.6514ZM20.724 27.2063L27.5362 14.9755L13.9106 39.4365L20.724 27.2063ZM17.7467 27.8636L10.9323 15.6339L24.5604 40.0936L17.7467 27.8636ZM28.8761 13.3618L35.8706 25.4894L21.8817 1.23426L28.8761 13.3618ZM17.7961 25.8916L29.7057 33.251L5.88667 18.5319L17.7961 25.8916ZM20.8185 28.3228L14.0054 40.5531L14.5952 40.8817L21.4083 28.6514L28.2214 16.421L27.6316 16.0924L20.8185 28.3228ZM21.3139 27.5349L28.1262 15.3041L27.5362 14.9755L20.724 27.2063L13.9117 39.4371L14.5016 39.7657L21.3139 27.5349ZM18.3366 27.5349L11.5222 15.3052L10.9323 15.6339L17.7467 27.8636L24.5611 40.0932L25.151 39.7645L18.3366 27.5349ZM18.832 28.3228L25.6451 40.5531L26.235 40.2245L19.4219 27.9941L12.6088 15.7638L12.0189 16.0924L18.832 28.3228ZM11.3709 18.957V4.95699H9.99997V18.957V32.957H11.3709V18.957ZM10.4 23.8606L15.4849 36.9045L16.7515 36.4107L11.6666 23.3668L6.58171 10.3229L5.3151 10.8166L10.4 23.8606ZM15.977 26.2615L1.97935 26.0052L1.96754 26.6502L15.9652 26.9065L29.9629 27.1628L29.9747 26.5178L15.977 26.2615ZM13.5065 25.9414L0.692602 20.302L0.430282 20.898L13.2442 26.5375L26.0581 32.1769L26.3204 31.5809L13.5065 25.9414ZM28.6172 23.6137L23.5322 36.6576L24.1655 36.9044L29.2505 23.8606L34.3354 10.8167L33.7021 10.5698L28.6172 23.6137ZM23.6735 26.2615L37.6711 26.0057L37.6593 25.3606L23.6617 25.6164L9.664 25.8723L9.67579 26.5173L23.6735 26.2615ZM26.1439 25.9414L13.3299 31.5807L13.5922 32.1767L26.4062 26.5375L39.2203 20.8982L38.9579 20.3022L26.1439 25.9414ZM26.7829 12.279L15.0508 4.63972L14.6926 5.18981L26.4247 12.8291L38.1568 20.4683L38.515 19.9182L26.7829 12.279ZM28.2916 13.6989L35.2861 25.8265L35.8706 25.4894L28.8761 13.3618L21.8816 1.2343L21.2971 1.5714L28.2916 13.6989ZM12.8676 12.279L24.5998 4.63997L24.2417 4.08988L12.5094 11.7289L0.777164 19.3679L1.13533 19.918L12.8676 12.279ZM11.3589 13.6989L18.3535 1.57149L17.7691 1.23439L10.7744 13.3618L3.77975 25.4893L4.36422 25.8264L11.3589 13.6989ZM17.4514 26.4493L29.3609 33.809L29.7055 33.2514L17.7961 25.8916L5.88667 18.5319L5.54204 19.0895L17.4514 26.4493ZM21.9038 27.8636L28.7172 15.6334L27.5373 14.9761L20.724 27.2063L13.9106 39.4365L15.0904 40.0938L21.9038 27.8636ZM20.2285 27.9941L13.4158 40.2247L14.5956 40.8819L21.4083 28.6514L28.221 16.4208L27.0412 15.7636L20.2285 27.9941ZM18.2421 28.6514L25.0552 40.8817L26.235 40.2245L19.4219 27.9941L12.6088 15.7638L11.429 16.421L18.2421 28.6514ZM18.9264 27.2063L12.1127 14.9763L10.9329 15.6336L17.7467 27.8636L24.5604 40.0936L25.7402 39.4363L18.9264 27.2063ZM21.1962 12.2903H35.1962V11H21.1962H7.19621V12.2903H21.1962ZM18.4543 11H4.45427V12.2903H18.4543H32.4543V11H18.4543ZM28.2795 19.8172V33.8172H29.6505V19.8172V5.8172H28.2795V19.8172ZM29.6505 18.957V4.95699H28.2795V18.957V32.957H29.6505V18.957ZM13.7688 25.3454L0.954925 19.7059L0.430283 20.898L13.2442 26.5375L26.0581 32.1769L26.5828 30.9848L13.7688 25.3454ZM15.9652 26.9065L29.9629 27.1627L29.9865 25.8727L15.9888 25.6164L1.99116 25.3602L1.96754 26.6502L15.9652 26.9065ZM27.9839 23.3668L22.8989 36.4107L24.1655 36.9044L29.2505 23.8606L34.3354 10.8167L33.0688 10.3229L27.9839 23.3668ZM26.4062 26.5375L39.2202 20.8982L38.6956 19.7061L25.8816 25.3454L13.0676 30.9847L13.5923 32.1768L26.4062 26.5375ZM23.6617 25.6164L9.664 25.8723L9.68758 27.1624L23.6852 26.9065L37.6829 26.6506L37.6593 25.3606L23.6617 25.6164ZM26.4247 12.8291L38.1568 20.4683L38.8732 19.3682L27.1411 11.7289L15.409 4.0896L14.6926 5.18978L26.4247 12.8291ZM28.8761 13.3618L21.8817 1.23426L20.7127 1.90845L27.7071 14.036L34.7015 26.1636L35.8705 25.4894L28.8761 13.3618ZM12.5094 11.7289L0.777122 19.3678L1.49345 20.468L13.2257 12.8291L24.958 5.19013L24.2417 4.08995L12.5094 11.7289ZM11.9433 14.036L18.9379 1.90855L17.769 1.23435L10.7744 13.3618L3.77982 25.4893L4.94876 26.1635L11.9433 14.036ZM17.7961 25.8916L5.88643 18.5322L5.19716 19.6477L17.1068 27.0071L29.0165 34.3664L29.7057 33.251L17.7961 25.8916ZM22.5436 27.0071L34.4534 19.648L33.7642 18.5325L21.8544 25.8916L9.94454 33.2507L10.6338 34.3661L22.5436 27.0071ZM21.4083 28.6514L-2.29354 13.7443L-2.29415 13.7453L21.4083 28.6514ZM20.724 27.2063L-2.97583 12.2959L-2.97869 12.3004L20.724 27.2063ZM17.7467 27.8636L-5.95646 42.7687L-5.9551 42.7708L17.7467 27.8636ZM19.4219 27.9941L-4.28075 42.9L-4.27778 42.9047L19.4219 27.9941ZM11.6666 23.3668L-13.9615 34.6451L-13.9614 34.6454L11.6666 23.3668ZM10.4 23.8606L-15.2281 35.1389L-15.2278 35.1395L10.4 23.8606ZM15.9652 26.9065L16.4213 -1.08979L16.4186 -1.08984L15.9652 26.9065ZM13.2442 26.5375L3.07382 52.6251L3.07476 52.6254L13.2442 26.5375ZM29.2505 23.8606L3.62358 12.5795L3.62271 12.5815L29.2505 23.8606ZM23.6617 25.6164L24.1165 53.6127L24.1171 53.6127L23.6617 25.6164ZM26.4062 26.5375L36.5765 52.6251L36.5767 52.625L26.4062 26.5375ZM26.4247 12.8291L12.4349 37.0837L12.4362 37.0844L26.4247 12.8291ZM28.8761 13.3618L52.3415 -1.91483L52.341 -1.9156L28.8761 13.3618ZM12.5094 11.7289L-1.47974 -12.5261L-1.47977 -12.5261L12.5094 11.7289ZM10.7744 13.3618L-12.6902 -1.91605L-12.6902 -1.91601L10.7744 13.3618ZM17.7961 25.8916L31.2429 1.33181L31.2424 1.33155L17.7961 25.8916ZM21.9038 27.8636L45.6057 42.7706L45.6082 42.7667L21.9038 27.8636ZM20.2285 27.9941L-3.47416 13.0883L-3.47468 13.0891L20.2285 27.9941ZM18.2421 28.6514L41.9446 13.7453L41.9439 13.7441L18.2421 28.6514ZM18.9264 27.2063L-4.77666 42.1114L-4.77621 42.1121L18.9264 27.2063ZM15.9888 25.6164L15.5334 53.6127L15.5339 53.6127L15.9888 25.6164ZM13.7688 25.3454L3.59759 51.4326L3.598 51.4328L13.7688 25.3454ZM28.2377 22.1266L56.1643 24.1525L56.1645 24.1499L28.2377 22.1266ZM27.9839 23.3668L53.6114 34.6465L53.6127 34.6434L27.9839 23.3668ZM29.6054 22.2145L57.5321 24.2397L57.5322 24.2382L29.6054 22.2145ZM23.6852 26.9065L23.2318 -1.08984L23.2292 -1.08979L23.6852 26.9065ZM25.8816 25.3454L15.7106 -0.741992L15.7101 -0.741788L25.8816 25.3454ZM24.6345 12.3666L22.1388 40.2552L22.139 40.2552L24.6345 12.3666ZM27.1411 11.7289L41.1301 -12.5261L41.1291 -12.5267L27.1411 11.7289ZM24.7643 11.0821L27.2601 -16.8064L27.26 -16.8064L24.7643 11.0821ZM29.5632 15.5988L1.70496 18.4126L1.70514 18.4143L29.5632 15.5988ZM27.7071 14.036L4.24178 29.3127L4.2437 29.3157L27.7071 14.036ZM28.1985 15.7209L56.0568 12.9079L56.0566 12.906L28.1985 15.7209ZM14.8862 11.0821L17.3819 38.9707L17.3819 38.9707L14.8862 11.0821ZM13.2257 12.8291L-0.763338 -11.426L-0.763507 -11.4259L13.2257 12.8291ZM15.016 12.3666L12.5203 -15.5219L12.5203 -15.5219L15.016 12.3666ZM11.452 15.7209L-16.4062 12.9066L-16.4062 12.9066L11.452 15.7209ZM11.9433 14.036L-11.5212 -1.24192L-11.5213 -1.24175L11.9433 14.036ZM10.0872 15.5988L37.9454 18.4132L37.9454 18.4131L10.0872 15.5988ZM18.4196 26.4463L40.5586 9.30379L40.5533 9.29689L18.4196 26.4463ZM17.1068 27.0071L3.63749 51.5545L3.66374 51.5689L3.69002 51.5833L17.1068 27.0071ZM17.3117 27.2063L39.4535 10.0675L39.4472 10.0594L17.3117 27.2063ZM16.8145 26.938L19.7251 -0.910332L19.7163 -0.911249L19.7075 -0.912161L16.8145 26.938ZM16.9654 25.6555L19.8684 -2.19361L19.8633 -2.19415L16.9654 25.6555ZM22.3388 27.2063L0.200968 10.0623L0.198951 10.0649L22.3388 27.2063ZM22.5436 27.0071L35.9626 51.5821L35.9808 51.5721L35.9991 51.5621L22.5436 27.0071ZM21.8544 25.8916L8.40946 1.33078L8.40615 1.33259L21.8544 25.8916ZM21.2308 26.4463L-0.907353 9.30276L-0.908153 9.3038L21.2308 26.4463ZM22.6851 25.6555L19.7874 -2.19417L19.7821 -2.19362L22.6851 25.6555ZM22.836 26.938L19.9428 -0.912148L19.934 -0.911235L19.9252 -0.910316L22.836 26.938ZM9.99997 18.957H-18C-18 36.352 -3.5339 47.6021 10.6855 47.6021V19.6021V-8.39785C24.1477 -8.39785 38 2.27456 38 18.957H9.99997ZM10.6855 19.6021V47.6021C24.9048 47.6021 39.3709 36.352 39.3709 18.957H11.3709H-16.6291C-16.6291 2.27455 -2.77674 -8.39785 10.6855 -8.39785V19.6021ZM11.6666 23.3668L37.2947 12.0885C30.6856 -2.92958 13.9237 -8.2636 0.601393 -3.07028L10.771 23.0176L20.9406 49.1055C8.31777 54.0262 -7.64215 49.0048 -13.9615 34.6451L11.6666 23.3668ZM10.771 23.0176L0.601393 -3.07028C-13.4595 2.41095 -22.272 19.1328 -15.2281 35.1389L10.4 23.8606L36.0281 12.5823C42.7823 27.9299 34.302 43.897 20.9406 49.1055L10.771 23.0176ZM21.4083 28.6514L45.1102 43.5584L45.6057 42.7706L21.9038 27.8636L-1.79808 12.9565L-2.29354 13.7443L21.4083 28.6514ZM20.724 27.2063L-2.97869 12.3004L-3.47416 13.0883L20.2285 27.9941L43.9311 42.9L44.4266 42.1121L20.724 27.2063ZM17.7467 27.8636L-5.9551 42.7708L-5.45963 43.5586L18.2421 28.6514L41.9439 13.7441L41.4484 12.9563L17.7467 27.8636ZM19.4219 27.9941L43.1245 13.0883L42.6291 12.3004L18.9264 27.2063L-4.77621 42.1121L-4.28075 42.9L19.4219 27.9941ZM20.2285 27.9941L-3.47468 13.0891C2.46978 3.63577 12.195 0.204213 19.8252 0.204213C27.4556 0.204213 37.1773 3.63544 43.1216 13.0836L19.4219 27.9941L-4.27778 42.9047C1.84269 52.6329 11.8797 56.2042 19.8252 56.2042C27.7707 56.2042 37.8111 52.6326 43.9317 42.8992L20.2285 27.9941ZM18.2421 28.6514L-5.46036 43.5574C6.22607 62.1403 33.4244 62.1403 45.1108 43.5574L21.4083 28.6514L-2.29415 13.7453C3.17967 5.04121 12.212 1.49458 19.8252 1.49458C27.4385 1.49458 36.4708 5.04121 41.9446 13.7453L18.2421 28.6514ZM18.4543 12.2903V40.2903H21.1962V12.2903V-15.7097H18.4543V12.2903ZM21.1962 11V-17H18.4543V11V39H21.1962V11ZM28.2795 18.957H0.279541V19.8172H28.2795H56.2795V18.957H28.2795ZM29.6505 19.8172H57.6505V18.957H29.6505H1.65051V19.8172H29.6505ZM15.9888 25.6164L16.4443 -2.37987C16.191 -2.38399 16.8867 -2.38714 17.9725 -2.2564C19.2313 -2.10484 21.3915 -1.73552 23.9397 -0.742055L13.7688 25.3454L3.598 51.4328C9.24665 53.6351 14.4509 53.5951 15.5334 53.6127L15.9888 25.6164ZM13.2442 26.5375L3.07476 52.6254C8.9629 54.9207 14.3645 54.8842 15.5118 54.9028L15.9652 26.9065L16.4186 -1.08984C16.1006 -1.09499 16.7829 -1.10003 17.8296 -0.972775C19.0151 -0.82865 21.03 -0.479681 23.4136 0.449486L13.2442 26.5375ZM10.4 23.8606L-15.2278 35.1395C-11.5641 43.4641 -4.78744 49.5603 3.07382 52.6251L13.2442 26.5375L23.4146 0.449851C28.7004 2.51056 33.4309 6.68089 36.0278 12.5816L10.4 23.8606ZM13.7688 25.3454L23.9401 -0.741893C29.5603 1.44937 34.5581 5.87023 37.2946 12.0882L11.6666 23.3668L-13.9614 34.6454C-10.4364 42.655 -3.92615 48.4992 3.59759 51.4326L13.7688 25.3454ZM28.2795 19.8172H0.279541C0.279541 20.0775 0.279495 20.2686 0.278972 20.4368C0.278455 20.6026 0.277585 20.6961 0.276881 20.7467C0.276174 20.7976 0.276192 20.7615 0.279559 20.6672C0.282927 20.5729 0.291196 20.375 0.310882 20.1033L28.2377 22.1266L56.1645 24.1499C56.2964 22.3298 56.2795 20.4163 56.2795 19.8172H28.2795ZM28.2377 22.1266L0.311066 20.1008C0.380844 19.1389 0.665764 15.9294 2.35503 12.0902L27.9839 23.3668L53.6127 34.6434C55.569 30.1972 56.0123 26.2483 56.1643 24.1525L28.2377 22.1266ZM29.2505 23.8606L54.8773 35.1416C56.9147 30.5134 57.3749 26.4082 57.5321 24.2397L29.6054 22.2145L1.67879 20.1892C1.74428 19.2861 2.01487 16.2339 3.62358 12.5795L29.2505 23.8606ZM29.6054 22.2145L57.5322 24.2382C57.6679 22.3661 57.6505 20.4085 57.6505 19.8172H29.6505H1.65051C1.65051 20.0777 1.65051 20.2664 1.64999 20.4376C1.64948 20.6048 1.64858 20.7025 1.64779 20.759C1.64699 20.8157 1.64682 20.7899 1.64977 20.708C1.6527 20.6267 1.66025 20.445 1.67868 20.1907L29.6054 22.2145ZM23.6852 26.9065L24.1386 54.9028C25.2854 54.8843 30.6878 54.9208 36.5765 52.6251L26.4062 26.5375L16.236 0.449785C18.6202 -0.479686 20.6356 -0.828674 21.8209 -0.972781C22.8676 -1.10003 23.5499 -1.09499 23.2318 -1.08984L23.6852 26.9065ZM25.8816 25.3454L15.7101 -0.741788C18.2589 -1.73557 20.4195 -2.10488 21.678 -2.25641C22.7637 -2.38714 23.4594 -2.38399 23.2062 -2.37987L23.6617 25.6164L24.1171 53.6127C25.199 53.5951 30.404 53.6352 36.0532 51.4325L25.8816 25.3454ZM27.9839 23.3668L2.35638 12.0871C5.09245 5.87074 10.0895 1.44958 15.7106 -0.741992L25.8816 25.3454L36.0526 51.4327C43.5774 48.499 50.0867 42.6545 53.6114 34.6465L27.9839 23.3668ZM26.4062 26.5375L36.5767 52.625C44.4378 49.5603 51.2144 43.4643 54.8782 35.1397L29.2505 23.8606L3.62271 12.5815C6.21969 6.68073 10.9502 2.51053 16.2358 0.449876L26.4062 26.5375ZM21.1962 12.2903V40.2903C21.5827 40.2903 21.8799 40.2904 22.1446 40.2914C22.4066 40.2924 22.5753 40.2941 22.6875 40.2961C22.8003 40.298 22.801 40.2992 22.7263 40.2959C22.6519 40.2927 22.4431 40.2824 22.1388 40.2552L24.6345 12.3666L27.1302 -15.5219C24.7453 -15.7353 22.1886 -15.7097 21.1962 -15.7097V12.2903ZM24.6345 12.3666L22.139 40.2552C21.0894 40.1613 17.0259 39.7317 12.4349 37.0837L26.4247 12.8291L40.4145 -11.4256C34.9762 -14.5623 29.85 -15.2785 27.1301 -15.5219L24.6345 12.3666ZM27.1411 11.7289L41.1291 -12.5267C35.4429 -15.8059 30.0855 -16.5536 27.2601 -16.8064L24.7643 11.0821L22.2685 38.9707C21.314 38.8853 17.4886 38.4848 13.1531 35.9845L27.1411 11.7289ZM24.7643 11.0821L27.26 -16.8064C24.7979 -17.0268 22.174 -17 21.1962 -17V11V39C21.5819 39 21.8761 39 22.1453 39.001C22.4098 39.002 22.5853 39.0038 22.707 39.0059C22.829 39.008 22.8452 39.0096 22.7887 39.0071C22.7333 39.0046 22.5478 38.9957 22.2686 38.9707L24.7643 11.0821ZM29.6505 18.957H57.6505C57.6505 18.131 57.6844 15.3867 57.4213 12.7833L29.5632 15.5988L1.70514 18.4143C1.66903 18.0571 1.65438 17.8022 1.6488 17.6904C1.64316 17.5775 1.64357 17.5435 1.64517 17.6257C1.64676 17.7076 1.6485 17.8469 1.64949 18.0832C1.6505 18.3249 1.65051 18.5912 1.65051 18.957H29.6505ZM29.5632 15.5988L57.4215 12.785C57.1073 9.67429 56.1712 3.96771 52.3415 -1.91483L28.8761 13.3618L5.41072 28.6385C2.40853 24.027 1.8413 19.7624 1.70496 18.4126L29.5632 15.5988ZM27.7071 14.036L4.2437 29.3157C1.08338 24.4627 0.485522 19.9728 0.340331 18.5359L28.1985 15.7209L56.0566 12.906C55.7526 9.89705 54.8502 4.40682 51.1705 -1.24364L27.7071 14.036ZM28.1985 15.7209L0.340135 18.534C0.301649 18.1528 0.285654 17.8758 0.279246 17.7463C0.272826 17.6165 0.272876 17.5684 0.274303 17.6427C0.275721 17.7164 0.277423 17.8501 0.27843 18.0844C0.279451 18.3219 0.279541 18.5915 0.279541 18.957H28.2795H56.2795C56.2795 18.1184 56.3122 15.4376 56.0568 12.9079L28.1985 15.7209ZM26.4247 12.8291L12.4362 37.0844C9.24732 35.2453 6.39765 32.6242 4.24178 29.3127L27.7071 14.036L51.1724 -1.24069C48.3761 -5.53599 44.6475 -8.98428 40.4132 -11.4263L26.4247 12.8291ZM28.8761 13.3618L52.341 -1.9156C49.4318 -6.38383 45.5486 -9.97782 41.1301 -12.5261L27.1411 11.7289L13.152 35.9839C10.1479 34.2513 7.45375 31.7764 5.41122 28.6393L28.8761 13.3618ZM18.4543 11V-17C17.4765 -17 14.8525 -17.0268 12.3905 -16.8064L14.8862 11.0821L17.3819 38.9707C17.1027 38.9957 16.9172 39.0046 16.8618 39.0071C16.8053 39.0096 16.8215 39.008 16.9435 39.0059C17.0652 39.0038 17.2407 39.002 17.5052 39.001C17.7744 39 18.0686 39 18.4543 39V11ZM14.8862 11.0821L12.3905 -16.8064C9.56555 -16.5536 4.20722 -15.8061 -1.47974 -12.5261L12.5094 11.7289L26.4986 35.9838C22.1621 38.4849 18.3358 38.8853 17.3819 38.9707L14.8862 11.0821ZM13.2257 12.8291L27.2148 37.0841C22.6243 39.7317 18.5613 40.1613 17.5116 40.2552L15.016 12.3666L12.5203 -15.5219C9.80038 -15.2785 4.67454 -14.5622 -0.763338 -11.426L13.2257 12.8291ZM15.016 12.3666L17.5116 40.2552C17.2074 40.2824 16.9986 40.2927 16.9242 40.2959C16.8494 40.2992 16.8502 40.298 16.9629 40.2961C17.0751 40.2941 17.2439 40.2924 17.5059 40.2914C17.7706 40.2904 18.0678 40.2903 18.4543 40.2903V12.2903V-15.7097C17.4618 -15.7097 14.9052 -15.7353 12.5203 -15.5219L15.016 12.3666ZM11.3709 18.957H39.3709C39.3709 18.5915 39.371 18.3219 39.372 18.0844C39.3731 17.85 39.3748 17.7165 39.3762 17.6428C39.3776 17.5686 39.3776 17.6169 39.3712 17.7468C39.3648 17.8765 39.3488 18.1538 39.3102 18.5352L11.452 15.7209L-16.4062 12.9066C-16.6618 15.4372 -16.6291 18.1189 -16.6291 18.957H11.3709ZM11.452 15.7209L39.3102 18.5353C39.165 19.9734 38.567 24.462 35.408 29.3138L11.9433 14.036L-11.5213 -1.24175C-15.1995 4.4075 -16.1021 9.89641 -16.4062 12.9066L11.452 15.7209ZM10.7744 13.3618L-12.6902 -1.91601C-16.5208 3.96727 -17.4568 9.67466 -17.771 12.7845L10.0872 15.5988L37.9454 18.4131C37.8092 19.762 37.242 24.0275 34.239 28.6397L10.7744 13.3618ZM10.0872 15.5988L-17.771 12.7844C-18.0339 15.3871 -18 18.1306 -18 18.957H9.99997H38C38 18.5912 38 18.3249 38.001 18.0833C38.002 17.8469 38.0037 17.7075 38.0053 17.6256C38.0069 17.5433 38.0073 17.5771 38.0017 17.6899C37.9961 17.8015 37.9815 18.0562 37.9454 18.4132L10.0872 15.5988ZM12.5094 11.7289L-1.47977 -12.5261C-5.89814 -9.97775 -9.78114 -6.3839 -12.6902 -1.91605L10.7744 13.3618L34.239 28.6397C32.1966 31.7765 29.5027 34.2512 26.4986 35.9838L12.5094 11.7289ZM11.9433 14.036L35.4079 29.314C33.2525 32.6243 30.4035 35.245 27.215 37.084L13.2257 12.8291L-0.763507 -11.4259C-4.99736 -8.98394 -8.72522 -5.5361 -11.5212 -1.24192L11.9433 14.036ZM18.9264 27.2063L42.6295 12.3011C42.5883 12.2355 42.338 11.8349 42.0717 11.4293C41.7992 11.014 41.27 10.2225 40.5586 9.3038L18.4196 26.4463L-3.71937 43.5888C-4.27237 42.8746 -4.64093 42.3156 -4.74604 42.1554C-4.78111 42.102 -4.80805 42.0603 -4.82487 42.0341C-4.84163 42.0081 -4.85171 41.9922 -4.8525 41.9909C-4.85308 41.99 -4.8486 41.9971 -4.83494 42.0188C-4.81923 42.0437 -4.80531 42.0659 -4.77666 42.1114L18.9264 27.2063ZM18.4196 26.4463L40.5533 9.29689C38.9661 7.24841 36.0044 3.93879 31.2429 1.33181L17.7961 25.8916L4.34929 50.4514C0.11852 48.135 -2.46062 45.2134 -3.71402 43.5957L18.4196 26.4463ZM17.1068 27.0071L3.69002 51.5833C1.75305 50.5258 -0.0845366 49.2213 -1.75874 47.6828C-3.21666 46.3431 -4.23365 45.1152 -4.82392 44.3532L17.3117 27.2063L39.4472 10.0594C37.9349 8.10707 35.0957 4.92688 30.5236 2.43085L17.1068 27.0071ZM17.3117 27.2063L-4.83021 44.3451C-5.14563 43.9376 -5.39357 43.5919 -5.56442 43.347C-5.73391 43.1041 -5.8594 42.9145 -5.92455 42.8151C-5.95939 42.7619 -5.98575 42.7211 -6.00136 42.6968C-6.017 42.6725 -6.02605 42.6582 -6.02609 42.6582C-6.02613 42.6581 -6.02118 42.6659 -6.00854 42.6859C-5.99571 42.7063 -5.9797 42.7317 -5.95646 42.7687L17.7467 27.8636L41.4498 12.9585C41.3801 12.8476 41.1563 12.4904 40.917 12.1252C40.6792 11.7622 40.161 10.9815 39.4535 10.0675L17.3117 27.2063ZM15.9652 26.9065L15.5091 54.9028C15.6109 54.9044 15.6517 54.9052 15.6735 54.9056C15.6947 54.906 15.6413 54.9051 15.5471 54.902C15.4536 54.8989 15.2615 54.8919 15.007 54.8769C14.7511 54.8618 14.3771 54.8355 13.9214 54.7881L16.8145 26.938L19.7075 -0.912161C18.6562 -1.02138 17.7944 -1.05436 17.3883 -1.06772C16.9757 -1.0813 16.5716 -1.08734 16.4213 -1.08979L15.9652 26.9065ZM16.8145 26.938L13.9039 54.7863C13.0496 54.697 11.5847 54.5021 9.79737 54.0254C7.73425 53.4751 5.65494 52.6615 3.63749 51.5545L17.1068 27.0071L30.5761 2.4596C26.0051 -0.0485344 21.8382 -0.689473 19.7251 -0.910332L16.8145 26.938ZM17.7961 25.8916L31.2424 1.33155C26.4702 -1.28118 22.1165 -1.95927 19.8684 -2.19361L16.9654 25.6555L14.0623 53.5046C12.3836 53.3296 8.58683 52.7714 4.34976 50.4517L17.7961 25.8916ZM16.9654 25.6555L19.8633 -2.19415C18.7991 -2.30488 17.9176 -2.34113 17.4529 -2.35669C16.9951 -2.37202 16.5451 -2.37823 16.4437 -2.37988L15.9888 25.6164L15.5339 53.6127C15.6518 53.6147 15.6823 53.6151 15.7088 53.6157C15.7274 53.616 15.6731 53.6151 15.5792 53.612C15.4851 53.6088 15.3054 53.602 15.0685 53.5877C14.833 53.5735 14.4889 53.549 14.0675 53.5051L16.9654 25.6555ZM21.9038 27.8636L45.6082 42.7667C45.6314 42.7297 45.6474 42.7043 45.6602 42.684C45.6729 42.6639 45.6778 42.6562 45.6777 42.6563C45.6776 42.6564 45.6685 42.6707 45.6528 42.6952C45.6372 42.7195 45.6107 42.7605 45.5758 42.8139C45.5104 42.9136 45.3846 43.1037 45.2147 43.3473C45.0434 43.5928 44.7948 43.9393 44.4786 44.3477L22.3388 27.2063L0.198951 10.0649C-0.510048 10.9806 -1.0292 11.7629 -1.26739 12.1264C-1.50697 12.4921 -1.73101 12.8498 -1.80055 12.9604L21.9038 27.8636ZM22.3388 27.2063L44.4766 44.3503C43.8857 45.1133 42.8683 46.3419 41.4099 47.6821C39.7353 49.2211 37.898 50.5252 35.9626 51.5821L22.5436 27.0071L9.12463 2.43204C4.55436 4.92759 1.71524 8.10689 0.200968 10.0623L22.3388 27.2063ZM21.8544 25.8916L8.40615 1.33259C3.6484 3.93787 0.685823 7.24542 -0.907353 9.30276L21.2308 26.4463L43.369 43.5898C42.1095 45.2163 39.5297 48.1359 35.3026 50.4506L21.8544 25.8916ZM21.2308 26.4463L-0.908153 9.3038C-1.61943 10.2224 -2.14846 11.0136 -2.42031 11.4278C-2.68553 11.8319 -2.93592 12.2324 -2.97583 12.2959L20.724 27.2063L44.4237 42.1167C44.4529 42.0704 44.4666 42.0485 44.4827 42.0229C44.4966 42.0009 44.5013 41.9935 44.5009 41.9941C44.5004 41.995 44.4905 42.0106 44.4739 42.0364C44.4572 42.0622 44.4305 42.1037 44.3955 42.1569C44.2911 42.3159 43.9227 42.8747 43.3698 43.5888L21.2308 26.4463ZM23.6617 25.6164L23.2068 -2.37988C23.1054 -2.37823 22.6554 -2.37202 22.1975 -2.35669C21.7327 -2.34113 20.8514 -2.30488 19.7874 -2.19417L22.6851 25.6555L25.5828 53.5051C25.1615 53.549 24.8175 53.5735 24.582 53.5877C24.3451 53.602 24.1654 53.6088 24.0713 53.612C23.9773 53.6151 23.9231 53.616 23.9416 53.6157C23.9681 53.6151 23.9986 53.6147 24.1165 53.6127L23.6617 25.6164ZM22.6851 25.6555L19.7821 -2.19362C17.5328 -1.95916 13.1804 -1.2809 8.40946 1.33078L21.8544 25.8916L35.2993 50.4524C31.0635 52.7711 27.2679 53.3295 25.5881 53.5046L22.6851 25.6555ZM22.5436 27.0071L35.9991 51.5621C33.989 52.6636 31.9145 53.4757 29.8519 54.0257C28.0655 54.5021 26.6013 54.697 25.7467 54.7863L22.836 26.938L19.9252 -0.910316C17.8068 -0.688896 13.6494 -0.0474377 9.08809 2.45203L22.5436 27.0071ZM22.836 26.938L25.7292 54.7881C25.2734 54.8354 24.8995 54.8617 24.6435 54.8769C24.389 54.8919 24.1969 54.8989 24.1034 54.902C24.0092 54.9051 23.9557 54.906 23.977 54.9056C23.9987 54.9052 24.0396 54.9044 24.1413 54.9028L23.6852 26.9065L23.2292 -1.08979C23.0788 -1.08734 22.6748 -1.0813 22.2621 -1.06772C21.856 -1.05436 20.9942 -1.02137 19.9428 -0.912148L22.836 26.938Z" fill="white" mask="url(#path-6-inside-1_218_139)"/>
</svg>
