<svg width="60" height="50" viewBox="0 0 60 50" fill="none" xmlns="http://www.w3.org/2000/svg">
<path d="M22.8004 18.5869L38.1304 18.8559C38.1304 18.8559 37.9882 18.9229 51.7061 7.13324H58.5002C59.3287 7.13324 60 7.76525 60 8.54527V45.3731C60 46.5162 58.5701 47.275 57.4608 46.811C55.0751 45.8137 51.0947 44.5943 45.8828 44.5943C37.0586 44.5943 30 49.5 30 49.5C30 49.5 22.9414 44.5943 14.1172 44.5943C8.9053 44.5943 4.92368 45.8137 2.5392 46.811C1.42994 47.275 0 46.5162 0 45.3731V8.54527C0 7.76525 0.671296 7.13324 1.49981 7.13324H8.29389L22.8016 18.5869H22.8004Z" fill="#26006A"/>
<path d="M30 9.70005C26.6997 5.7459 21.6125 1.79058 9.00264 1.50042C8.17412 1.48162 7.49908 2.1148 7.49908 2.89483V37.0631C7.49908 37.8431 8.17412 38.4552 9.00264 38.481C21.6113 38.8687 26.6997 44.1326 30 48.0868M30 9.70005C33.3004 5.7459 38.3875 1.79058 50.9974 1.50042C51.8259 1.48162 52.5009 2.10071 52.5009 2.88073V37.0619C52.5009 37.8419 51.8259 38.4563 50.9974 38.4822C38.3887 38.8698 33.3004 44.1338 30 48.088M30 9.70005V48.0868V9.70005Z" fill="white"/>
<path d="M30 9.70005C26.6997 5.7459 21.6125 1.79058 9.00264 1.50042C8.17412 1.48162 7.49908 2.1148 7.49908 2.89483V37.0631C7.49908 37.8431 8.17412 38.4552 9.00264 38.481C21.6113 38.8687 26.6997 44.1326 30 48.0868V9.70005ZM30 9.70005C33.3004 5.7459 38.3875 1.79058 50.9974 1.50042C51.8259 1.48162 52.5009 2.10071 52.5009 2.88073V37.0619C52.5009 37.8419 51.8259 38.4563 50.9974 38.4822C38.3887 38.8698 33.3004 44.1338 30 48.088" stroke="#26006A" stroke-width="3" stroke-linejoin="round"/>
</svg>
