<?xml version="1.0" encoding="UTF-8"?>
<svg id="Ebene_1" xmlns="http://www.w3.org/2000/svg" version="1.1" viewBox="0 0 40 40">
  <!-- Generator: Adobe Illustrator 29.8.4, SVG Export Plug-In . SVG Version: 2.1.1 Build 6)  -->
  <defs>
    <style>
      .st0 {
        fill: #fff;
      }
    </style>
  </defs>
  <path class="st0" d="M20,33.89c1.53,0,3.01-.24,4.46-.73s2.77-1.19,3.99-2.1c-1.25-.88-2.59-1.58-4.01-2.1-1.43-.52-2.9-.78-4.43-.78s-3,.26-4.43.78c-1.43.52-2.76,1.22-4.01,2.1,1.21.92,2.54,1.62,3.99,2.1,1.44.49,2.93.73,4.46.73ZM23.86,19.92l-1.99-1.99c.36-.28.63-.62.82-1.01.18-.4.28-.82.28-1.28,0-.82-.29-1.53-.87-2.1-.58-.58-1.28-.87-2.1-.87-.45,0-.88.09-1.28.28-.4.19-.74.46-1.01.82l-1.99-1.99c.55-.62,1.19-1.09,1.92-1.41.74-.32,1.52-.48,2.35-.48,1.59,0,2.95.56,4.07,1.68,1.12,1.12,1.68,2.48,1.68,4.07,0,.83-.16,1.62-.48,2.35-.32.74-.79,1.38-1.41,1.92ZM33.58,29.64l-1.94-1.94c.74-1.16,1.3-2.38,1.68-3.68.38-1.3.57-2.63.57-4.01,0-3.87-1.35-7.15-4.04-9.85-2.69-2.69-5.98-4.04-9.85-4.04-1.38,0-2.72.19-4.01.57-1.3.38-2.51.95-3.65,1.71l-1.97-1.97c1.42-1,2.94-1.76,4.58-2.29s3.32-.79,5.06-.79c2.31,0,4.47.44,6.5,1.31s3.79,2.06,5.29,3.56,2.69,3.26,3.56,5.29,1.31,4.19,1.31,6.5c0,1.73-.26,3.42-.79,5.06s-1.29,3.17-2.29,4.58ZM20,36.67c-2.31,0-4.47-.44-6.5-1.31s-3.79-2.06-5.29-3.56-2.69-3.26-3.56-5.29-1.31-4.19-1.31-6.5c0-1.73.26-3.42.77-5.06.51-1.64,1.27-3.16,2.27-4.57L1.1,5.06l1.99-1.99,33.42,33.42-1.99,1.99L8.36,12.36c-.76,1.14-1.32,2.36-1.69,3.65-.37,1.3-.56,2.63-.56,3.99,0,1.68.29,3.29.86,4.83.57,1.55,1.39,2.96,2.44,4.25,1.57-1.12,3.25-2.02,5.03-2.69,1.78-.67,3.63-1.01,5.55-1.01,1.2,0,2.38.14,3.54.42,1.16.28,2.29.67,3.4,1.17l4.82,4.82c-1.58,1.58-3.38,2.79-5.4,3.63-2.02.83-4.14,1.25-6.36,1.25Z"/>
</svg>