<svg width="34" height="34" viewBox="0 0 34 34" fill="none" xmlns="http://www.w3.org/2000/svg">
<path d="M10.5 24.7779L16.6667 18.6113L22.8333 24.7779L24.7779 22.8333L18.6113 16.6667L24.7779 10.5L22.8333 8.55542L16.6667 14.7221L10.5 8.55542L8.55542 10.5L14.7221 16.6667L8.55542 22.8333L10.5 24.7779ZM16.6667 33.3333C14.3797 33.3333 12.2224 32.8958 10.1946 32.0208C8.16681 31.1458 6.3982 29.9538 4.88875 28.4446C3.37958 26.9351 2.1875 25.1665 1.3125 23.1388C0.4375 21.111 0 18.9536 0 16.6667C0 14.3611 0.4375 12.1944 1.3125 10.1667C2.1875 8.13889 3.37958 6.375 4.88875 4.875C6.3982 3.375 8.16681 2.1875 10.1946 1.3125C12.2224 0.4375 14.3797 0 16.6667 0C18.9722 0 21.1389 0.4375 23.1667 1.3125C25.1944 2.1875 26.9583 3.375 28.4583 4.875C29.9583 6.375 31.1458 8.13889 32.0208 10.1667C32.8958 12.1944 33.3333 14.3611 33.3333 16.6667C33.3333 18.9536 32.8958 21.111 32.0208 23.1388C31.1458 25.1665 29.9583 26.9351 28.4583 28.4446C26.9583 29.9538 25.1944 31.1458 23.1667 32.0208C21.1389 32.8958 18.9722 33.3333 16.6667 33.3333ZM16.6667 30.5554C20.5369 30.5554 23.8193 29.2036 26.5138 26.5C29.2082 23.7964 30.5554 20.5186 30.5554 16.6667C30.5554 12.7964 29.2082 9.51403 26.5138 6.81958C23.8193 4.12514 20.5369 2.77792 16.6667 2.77792C12.8147 2.77792 9.53695 4.12514 6.83333 6.81958C4.12972 9.51403 2.77792 12.7964 2.77792 16.6667C2.77792 20.5186 4.12972 23.7964 6.83333 26.5C9.53695 29.2036 12.8147 30.5554 16.6667 30.5554Z" fill="black"/>
</svg>
